<?xml version="1.0" encoding="utf-8"?>
<!-- Generator: Adobe Illustrator 23.0.0, SVG Export Plug-In . SVG Version: 6.00 Build 0)  -->
<svg version="1.1" id="Layer_1" xmlns="http://www.w3.org/2000/svg" xmlns:xlink="http://www.w3.org/1999/xlink" x="0px" y="0px"
	 viewBox="0 0 792 612" style="enable-background:new 0 0 792 612;" xml:space="preserve">
<path d="M401.6,295.9c0-62,0.1-124-0.1-186c0-8.4,4.5-13.7,10.6-18c8.4-6,18.2-8.4,28.2-10.1c26.4-4.6,49.3,3.7,70.3,19.2
	c12.5,9.2,23,20.3,30.3,34.1c2.9,5.4,4.4,11.5,6.6,17.3c0.4,1.1,1,2.6,1.9,3.1c21.4,11.3,32.4,30.1,37.9,52.7
	c1.2,5.1,1.9,10.3,3,15.5c0.2,1,0.7,2.2,1.5,2.9c10.4,9.7,16.9,21.7,21.1,35.1c4.2,13.4,6,27.2,5,41.2c-1.1,15.2-5.9,29.3-14.9,41.7
	c-3.2,4.5-4,8-2.5,13.5c9.3,33.5,0.4,62.3-24.1,86.5c-7.4,7.3-16.1,12.6-25.4,17.1c-0.9,0.4-1.8,1.3-2.4,2.2
	c-17.4,29.5-43.6,44.9-77.4,47.6c-24.2,1.9-46.1-4.7-65.8-19c-2.7-1.9-3.9-4.4-3.9-7.7c0-7.1,0-14.3,0-21.4
	C401.6,407.5,401.6,351.7,401.6,295.9C401.6,295.9,401.6,295.9,401.6,295.9z M490.4,173.1c-5.5-3.1-10.6-5.9-15.6-9
	c-2.9-1.8-4.2-4.8-3.8-8.2c0.4-3.5,2.3-5.9,5.6-7.2c3-1.1,5.7-0.6,8.2,1.3c5.2,3.9,11,6.5,17.4,7.7c9.6,1.8,18.8,0.9,28.3-3.4
	c-1.4-3.4-2.6-6.7-4.3-9.8c-7.2-13.4-17.6-23.8-30-32.4c-20.8-14.3-43.1-18.3-67.2-9.4c-2.9,1.1-5.6,2.7-8.1,4.4
	c-0.9,0.6-1.7,2.2-1.6,3.2c1.4,9,4.6,17.3,10.2,24.5c4.8,6.1,10.9,9.7,19.1,8.4c4.5-0.7,8.7,2.6,9.4,7.1c0.8,4.6-2.1,9.1-6.7,10
	c-8.4,1.7-16.3,0.3-23.6-4.1c-3-1.8-5.7-4.1-8.7-6.4c0,0.6-0.1,1-0.1,1.5c0,22.2,0,44.4,0,66.6c0,0.8,0.1,1.7,0.3,2.5
	c3.6,14.4,18.8,21.6,32.2,15c2.2-1.1,4.2-2.8,6.2-4.3c3.9-3.1,8.6-3,12,0.5c3.2,3.3,3.4,8.1,0.2,11.7c-1.4,1.5-3,2.8-4.6,4.1
	c-11.6,9.2-30.5,10.4-43.1,2.8c-0.9-0.5-1.9-0.9-3-1.5c0,21.9,0,43.3,0,65c11.7-5.5,22.8-4.7,33.6,1.4c2.3,1.3,4.5,2.8,6.5,4.4
	c9.3,7.3,19.1,7.7,29.7,3c2-0.9,4.3-1.7,6.4-1.6c4,0.3,6.9,3.4,7.5,7c0.6,4.2-1.2,7.5-4.9,9.6c-6.5,3.5-13.5,5.1-20.9,5.7
	c0.4,1.1,0.6,2,1,2.8c2.4,6.7,3.3,13.7,3.3,20.8c0,5.6-3.7,9.4-8.8,9.3c-5-0.1-8.4-3.8-8.5-9.3c-0.1-7-1.3-13.9-4.6-20.2
	c-4.8-9.1-11.2-16.5-21.8-19c-6.2-1.5-12.4,1-15,6.7c-1.8,3.8-3.3,8.2-3.4,12.3c-0.3,29.3-0.2,58.6-0.1,87.8c0,0.8,0.1,1.6,0.2,2.5
	c1-0.5,1.7-0.8,2.3-1.1c7.4-3.1,14.9-3.9,22.4-0.4c4.3,2,6.1,6.6,4.5,10.8c-1.7,4.4-6.1,6.8-10.8,5.1c-9.1-3.2-17.8,4.7-18.6,13.6
	c-0.8,8.9,3,15.6,10.4,20.5c8.1,5.3,17.3,7.5,26.7,8.3c30.2,2.4,55.3-7.6,73.3-32.3c10.4-14.3,14.5-30.6,11.4-48.4
	c-0.9-5.1,2-9.8,6.7-10.7c5.1-0.9,9.6,1.9,10.3,7.2c0.8,5.9,1.1,12,1.2,18c0.1,3-0.7,5.9-1.1,9.6c11.6-8.8,19.9-19.4,24.6-32.5
	c5.8-15.8,5.6-31.6-0.5-47.4c-1.1,0.3-2.1,0.5-3,0.7c-12.2,2.6-23.9,1.4-35.1-4.5c-2.4-1.2-4-3.1-4.6-5.8c-0.8-3.8,0.5-6.9,3.6-9.1
	c2.9-2.1,6-2.1,9.1-0.5c8.3,4.3,17,4.8,25.7,2.1c4.2-1.3,8.9-2.5,11.5-6.5c5.6-8.4,9.3-17.7,10.5-27.7c2.1-16.5-0.3-32.4-6.9-47.7
	c-1.7-4-4.1-7.7-6.5-12c-0.6,1-0.7,1.3-0.9,1.6c-3.7,7-7.3,14-11.1,20.9c-1.1,2-2.7,3.9-4.4,5.5c-3.2,3-8.4,2.7-11.6-0.2
	c-3.4-3.1-3.6-8.3-0.3-12.5c4.5-5.9,8.3-12.3,10.8-19.4c2.1-5.9,4.1-11.9,3.4-18.2c-1.1-9.9-3.7-19.6-8.2-28.6
	c-5.3-10.9-13-19.5-24.1-24.8c-0.8-0.4-1.9-0.5-2.8-0.3c-6.4,1.7-12.7,3.9-19.2,5.1c-10.8,1.9-16.6,9-17.4,17.6
	c-1.2,14.2,14,24.3,26.9,18c4.9-2.4,9.9-0.9,12.1,3.5c2.4,4.9,0.5,9.9-4.8,12.3c-12.5,5.6-24.5,4.7-36-2.8
	c-13.8-9.1-19.5-28-12.9-43.2C487.5,178,489.2,175.4,490.4,173.1z"/>
<path d="M382.5,296.2c0,59.4,0,118.8,0,178.2c0,3.5,0,7,0,10.4c0,3.2-1.3,5.7-3.9,7.7c-15.4,11.3-32.6,17.6-51.7,18.9
	c-25.6,1.8-48.5-5.2-68.7-21c-9.3-7.3-16.7-16.2-22.6-26.4c-0.6-1.1-1.8-2.1-3-2.7c-29.2-14.5-47.4-37.3-52.1-69.9
	c-1.8-12.5-0.2-24.8,4-36.7c0.9-2.7,0.9-4.4-0.9-6.8c-11.6-15.3-17.6-32.7-17.5-51.9c0.1-16.5,3.1-32.4,10.2-47.3
	c4-8.4,9.2-15.9,16.1-22.3c0.8-0.7,1.3-2,1.5-3.1c1.8-13,4.9-25.7,11-37.4c6.4-12.5,15.5-22.6,28-29.3c2.4-1.3,3.5-2.9,4.1-5.7
	c2.6-11.9,8.9-21.9,16.5-31.1c13.6-16.2,30.3-28.4,50.5-35.2c21.3-7.2,42.1-5,62.4,3.8c5.2,2.3,9.9,5.6,12.9,10.6
	c1.6,2.7,3.1,6,3.1,9.1c0.2,52.4,0.1,104.9,0.1,157.3C382.5,275.7,382.5,285.9,382.5,296.2C382.5,296.2,382.5,296.2,382.5,296.2z
	 M259.5,467.9c0.8,0.9,1.2,1.4,1.6,1.9c11.4,11.8,25.2,19.4,41.3,22.8c20.5,4.3,39.8,1,58.1-9c1.5-0.8,1.9-1.7,1.1-3.1
	c-4.5-7.8-9.6-14.7-19.8-14.9c-4.6-0.1-8-3.8-8.2-8.5c-0.2-4.3,3.1-8.4,7.5-8.8c4.9-0.5,9.7,0.2,14.2,2.7c3.2,1.8,6.5,3.5,9.8,5.3
	c0-28.9,0-57.7,0-86.5c-0.3,0-0.5-0.1-0.7-0.1c-0.4,0.2-0.9,0.4-1.3,0.6c-5.3,2.9-11,4.3-17,4.6c-16,0.9-31.5-8.4-38.1-22.8
	c-1.7-3.8-0.9-8.1,2-10.6c3.2-2.7,7.3-3.2,10.6-0.6c1.8,1.4,3,3.6,4.2,5.5c7.7,13.2,26.8,15,36.6,3.3c2.4-2.9,3.9-5.9,3.9-10.1
	c-0.1-29.5,0.1-59.1,0.1-88.6c0-14.8-0.1-29.5-0.2-44.3c0-1,0-2,0-3.5c-9.1,7.7-19.2,11.1-30.1,12.4c-11.9,1.4-23-0.6-33.1-7.4
	c-4.8-3.2-5.9-9.2-2.3-13.4c3-3.5,7.6-4.2,11.7-1.3c12.5,9,33.6,4.6,41.7-3.2c7.6-7.2,11.5-16.5,11.8-26.7
	c0.6-17.4,0.2-34.8,0.4-52.2c0-2.9-1.3-4.6-3.5-5.8c-12.4-6.7-25.6-9-39.5-7.5c-14.6,1.6-27.3,8.1-38.8,16.9
	c-7,5.3-13.7,11.1-18.2,18.7c-5,8.6-4.5,17.4,1.6,25.4c5.6,7.3,13.4,10,22.3,8.4c9.3-1.6,16.6-9.7,18.4-19.1
	c0.4-1.9,1.5-3.9,2.8-5.2c2.7-2.6,7-2.6,10.2-0.6c3,1.9,4.4,5.8,3.6,10c-5.3,27.5-36.4,41.3-60.4,26.8c-5.3-3.2-9.5-7.6-12.9-12.5
	c-1.7,0.8-3.2,1.3-4.5,2.1c-4.5,2.8-9.4,5.2-13.5,8.6c-9.1,7.6-14.5,17.7-17.7,28.9c-1.7,6.1-3.7,12.4-3.8,18.7
	c-0.2,11.6,3.4,22.4,9.7,32.2c1.9,3,4.1,5.8,5.9,8.9c2.3,4,1.1,9.1-2.6,11.5c-4,2.6-9,1.8-11.8-2c-2.7-3.6-5.3-7.3-7.5-11.3
	c-3-5.5-5.5-11.2-8.3-17c-0.8,1.2-1.8,2.5-2.6,3.8c-6.4,10.8-9.4,22.7-10.6,35.1c-2.1,21,3.2,40,17.7,55.8c3.7,4,3.6,7.9,1.6,12.6
	c-9.8,23.6-7,46,7.8,66.8c7.4,10.4,17.4,17.7,29,23.5c14.2,7.2,27.3,6.2,40.2-2.3c6.8-4.5,12-10.4,12.7-19c0.4-4.9,4.6-8.7,9.2-8.4
	c4.7,0.4,8.9,4.7,8,9.5c-0.9,5.2-2,10.7-4.4,15.3c-8.2,15.2-21.9,22.9-38.4,26.4C264.7,467.3,262.4,467.5,259.5,467.9z"/>
<path d="M530.3,388.1c-0.1,14.5-7.3,23.8-18.6,30.4c-6.2,3.6-12.6,6.8-18.7,10.5c-4.2,2.5-5.3,6.3-3.8,11c0.7,2,1.6,4,2.3,6
	c1.8,4.8-0.2,9.5-4.8,11.5c-4.3,1.8-9-0.3-11.2-4.8c-2.9-5.9-4.6-12.2-4.2-18.8c0.7-10.2,6.9-16.8,15.3-21.6
	c4.7-2.7,9.7-4.9,14.4-7.7c3-1.8,6.2-3.7,8.5-6.3c4.7-5.2,3.7-11.3,1.7-17.3c-1.4-4.1-2-8.1,1.5-11.5c4.4-4.5,12-3.1,14.1,2.9
	c1.2,3.3,2,6.9,2.7,10.3C530.1,384.6,530.1,386.8,530.3,388.1z"/>
<path d="M499.6,263.5c24.4,0,44.1,20.1,43.8,45.1c-0.1,6.2-3.4,9.8-8.9,9.8c-5.2-0.1-8.5-3.8-8.5-9.8c0-21.5-21.4-34.3-40.4-24
	c-4.8,2.6-9.9,1.4-12.3-2.8c-2.4-4.3-1.1-9.4,3.5-12.2C483.5,265.4,490.9,263.4,499.6,263.5z"/>
<path d="M270.2,234.1c-7.3-5-13.9-10.3-18.9-17.2c-4.3-5.8-7.4-12.2-9.5-19.1c-1.4-4.7,0.9-9.3,5.2-10.8c4.6-1.6,9.4,0.6,11.3,5.3
	c1.4,3.5,2.6,7.1,4.3,10.3c4,7.4,10.2,12.9,17.4,16.8c10.7,5.8,21.9,10.8,32.8,16.2c13.9,6.9,24.6,16.9,29.9,31.8
	c5.9,16.6,2.6,37.5-10.2,49.1c-2.4,2.2-5.3,3.9-8.3,5.3c-4.3,1.9-9-0.2-11-4.2c-2-4.1-0.8-9.1,3.4-11.2c7.2-3.6,9.9-10,11-17.3
	c2-13.5-3.1-24.1-13.6-32.3c-6.3-4.9-13.4-8.5-21.1-10.3c-10.2-2.4-20.7,5.5-21.8,15.7c-1.2,11.3,6.9,20.9,17.9,21.2
	c3,0.1,6-0.5,8.7,1.5c3.1,2.3,4,5.4,3.3,9c-0.7,3.4-2.8,5.8-6.3,6.5c-8.5,1.6-16.6-0.2-23.8-4.7c-12.7-8-18.5-19.7-17.2-34.6
	c1-10.8,6.3-19.3,15-25.7C269.1,234.9,269.5,234.6,270.2,234.1z"/>
<path d="M221.9,318.7c3.3-1.5,6.6-3.4,10.1-4.3c18.9-4.9,36.8,6.8,43.5,24c1.5,3.8,2.7,7.9,3.4,11.9c2.8,16,12.3,25.7,27.8,29.8
	c4.9,1.3,7.2,4,7.3,8.4c0.1,5.7-4.3,9.6-9.9,8.6c-8.3-1.4-15.6-5.2-22.3-10.2c-1.5-1.1-3-2.2-4.4-3.3c-2.2,4.7-4,9.5-6.6,13.8
	c-3.2,5.2-6.9,10-10.8,14.7c-3.1,3.7-8.6,3.5-12.1,0.2c-3.5-3.4-3.6-8.5-0.3-12.1c10.4-11.6,16.1-24.9,15.2-40.6
	c-0.5-8.5-2.4-16.8-9-23.1c-4.9-4.7-10.5-6.8-17.3-5.3c-0.6,0.1-1.3,0.1-2,0.1C230.3,327.1,226.1,322.9,221.9,318.7z"/>
<path d="M221.9,318.7c4.2,4.2,8.3,8.4,12.5,12.6c-3.7,2.2-7.4,4.3-11.1,6.4c-3.7,2.1-9.1,0.9-11.3-2.5c-2.7-4.1-2-9.3,1.8-12
	C216.4,321.5,219.2,320.2,221.9,318.7z"/>
</svg>
